<svg id="Livello_1" data-name="Livello 1" xmlns="http://www.w3.org/2000/svg" viewBox="0 0 252.11 326.27"><defs><style>.cls-1{fill:#d0e8ec;}.cls-1,.cls-2,.cls-3,.cls-4{stroke:#000;stroke-miterlimit:10;}.cls-1,.cls-2,.cls-4{stroke-width:2px;}.cls-2{fill:#4384c4;}.cls-3,.cls-4{fill:none;}</style></defs><path class="cls-1" d="M175.5,235.5c.07.94.75,11.87-3,13-3.13.94-8.1-5.32-10-11-.53-1.6-3.19-9.53,1-13a7.09,7.09,0,0,1,7-1C174.79,225.34,175.23,231.69,175.5,235.5Z" transform="translate(-132.39 -107.49)"/><path class="cls-1" d="M303.82,190.42c.38-1.13,4.82-14.3,9.74-13.84,4.11.4,6.91,10.12,6.4,17.69-.14,2.13-.85,12.72-7.41,14.79a8.91,8.91,0,0,1-8.65-2.16C299.78,202.69,302.31,195,303.82,190.42Z" transform="translate(-132.39 -107.49)"/><path class="cls-1" d="M312.5,189.5c.35,11,.84,26.42-8,43-15.68,29.4-47,36.57-49,37-36.7,7.78-64.86-17.65-73-25-7.52-6.79-27.24-24.6-30-54-.61-6.5-1.72-27.71,12-48,14.16-20.94,35.06-27.5,43-30a86.48,86.48,0,0,1,27-4c7.17.1,37.63.54,59,24C311.31,152.05,312.06,175.81,312.5,189.5Z" transform="translate(-132.39 -107.49)"/><path d="M204.86,199.56c4.27-5.78,12-6.69,18.6-7.2,1-.07,1-1.57,0-1.5-7.24.56-15.26,1.67-19.9,7.94-.57.78.73,1.52,1.3.76Z" transform="translate(-132.39 -107.49)"/><path d="M266.53,185.59c6.4-3.33,13.87-2.83,20.82-2.16,1,.1.95-1.4,0-1.5-7.25-.7-14.91-1.1-21.57,2.37-.86.44-.1,1.74.75,1.29Z" transform="translate(-132.39 -107.49)"/><path d="M237.81,219.44c3.9-.42,6.53-3.84,10.46-4.24s7.79.61,11.48-1c.88-.39.12-1.69-.75-1.3-3.54,1.57-7.56.39-11.27.89a12.43,12.43,0,0,0-4.92,1.86c-1.57,1-3.12,2.11-5,2.31-.95.1-1,1.61,0,1.5Z" transform="translate(-132.39 -107.49)"/><path class="cls-2" d="M177.5,314.5l2-18,1.8-6.3,44.2-21.7a62.14,62.14,0,0,0,27.7,1.44,76.67,76.67,0,0,0,22.3-8.44c1.76-1,6.94-4.33,8-5a33.79,33.79,0,0,0,3-2c2-1.61,2.71-2.74,6-6a17.31,17.31,0,0,1,1.89-1.77c3.9-1.9,10.61,4.37,12.11,5.77,6.54,6.11,6.89,10.12,12,17,6,8,7.64,5.49,15,14,9.57,11.07,14.93,24.87,15,25h0c2.3,10,6.48,15.66,10,19,3.15,3,6.2,4.54,11.23,10,3.7,4,5.55,6.06,6.77,9,3.05,7.3-.63,10.73,3,17,1.93,3.33,4,4.17,4,7,0,.64-.12,2-4,7,0,0-2.44,3.11-8,9h0c.36,23.73,1.57,32.87,3,35a.3.3,0,0,1,.06.16c.17,3.18-55.54,9.35-106.06,10.84-40.78,1.2-26.67-2.16-55-1a154.2,154.2,0,0,1-50-8,12.63,12.63,0,0,1-5-3c-3.36-3.37-3.29-7.59-4-11-1.66-8-6.64-7.23-14-19-4-6.38-7.82-12.5-7-20,.3-2.72,2.2-6.48,6-14,4.95-9.79,5.61-9.47,8-15,3.58-8.27,2.48-9.87,6-18a74.23,74.23,0,0,1,8-14,86.36,86.36,0,0,1,17.75-17.75c.85-.66,1.56-1.19,2.05-1.55" transform="translate(-132.39 -107.49)"/><path class="cls-3" d="M318.5,193.5" transform="translate(-132.39 -107.49)"/><path class="cls-1" d="M329.5,334.5c-13.62,4.23-16.81,8.12-17,11-.14,2.14,1.58,5,0,8A4.74,4.74,0,0,1,310,356c-2.5.83-4.24-2.08-6.5-1.5s-1.8,3.49-4,6c-3.17,3.62-9.95,5.3-14,3-4.25-2.41-2.18-7.33-8-12-1.73-1.39-3.25-2-4-4s-.34-4.21,1-7c4.85-10.13,16.32-15.68,17-16a36,36,0,0,1,16-4c2.92,0,17.08.4,21,9A11.65,11.65,0,0,1,329.5,334.5Z" transform="translate(-132.39 -107.49)"/><path class="cls-4" d="M154.5,409.5A359.28,359.28,0,0,1,161,372c1.61-7,2.8-11.16,5-16a66.8,66.8,0,0,1,15-21c7.34-6.94,13.1-12.38,21-12,6.1.3,10.82,3.47,13,5,3,2.09,4.46,4,11,13,9.22,12.73,9.68,13.7,12,16a48.32,48.32,0,0,0,15,10" transform="translate(-132.39 -107.49)"/><path class="cls-1" d="M177.5,314.5c-2.91-3.76-.9-9.74,2-18,5.23-14.9,11.54-19.74,9-25-1.6-3.31-5.72-4.77-9-9a57.89,57.89,0,0,1-3.91-6.2,34.14,34.14,0,0,1-3.42-12.15c-.06-.9,0-1.61,0-2.21a10,10,0,0,1,.37-2.44c1.47-5.88,2.12-8.85,4-10,2.94-1.8,7.82.06,10.5,2.5,2.32,2.11,2,3.74,5.43,8.58a32.9,32.9,0,0,0,4.07,4.92c3.78,3.57,10.78,7.12,18,9,2.63.68,5.89,1.29,9,4,1.83,1.6,4,3.46,4,6,0,3.31-3.55,4.43-6.68,12.18-.09.22-.2.49-.32.82-3.47,9.44,1.92,15.48-1,24a16.08,16.08,0,0,1-2,4c-2.2,3.14-5.11,4.66-8,6-8,3.73-12,5.59-17,6S180.59,318.49,177.5,314.5Z" transform="translate(-132.39 -107.49)"/><path class="cls-4" d="M313,344a26.11,26.11,0,0,1,7.89-6.48c4.39-2.34,8.52-4.06,10.61-3s11,0,12,1,11,5,14,10,8,14,9,18,4,18,4,19a22.69,22.69,0,0,0,1,4" transform="translate(-132.39 -107.49)"/></svg>